<svg t="1732434086519" class="icon" viewBox="0 0 1024 1024" version="1.1" xmlns="http://www.w3.org/2000/svg" p-id="10175" width="200" height="200"><path d="M512 1024A512 512 0 1 1 512 0a512 512 0 0 1 0 1024z m233.984-768H560.832a4.48 4.48 0 0 0-4.48 4.416v41.152a4.48 4.48 0 0 0 4.48 4.416h117.824L532.224 452.352a209.856 209.856 0 0 0-128.64-43.52c-56.512 0-109.696 22.016-149.568 62.016A210.496 210.496 0 0 0 192 620.416c0 56.512 22.016 109.696 62.016 149.568A210.048 210.048 0 0 0 403.584 832c56.512 0 109.696-22.016 149.568-62.016a210.048 210.048 0 0 0 62.08-149.568c0-47.104-15.36-91.776-43.52-128.512L718.016 345.6v117.632a4.48 4.48 0 0 0 4.48 4.48h41.088a4.48 4.48 0 0 0 4.416-4.48V278.016A22.08 22.08 0 0 0 745.984 256z m-342.4 520.192a155.904 155.904 0 0 1-155.776-155.776A155.904 155.904 0 0 1 403.584 464.64 155.904 155.904 0 0 1 559.36 620.416a155.904 155.904 0 0 1-155.776 155.776z" fill="#2f6bfe" p-id="10176"></path></svg>