<?xml version="1.0" standalone="no"?><!DOCTYPE svg PUBLIC "-//W3C//DTD SVG 1.1//EN" "http://www.w3.org/Graphics/SVG/1.1/DTD/svg11.dtd"><svg t="1732430381369" class="icon" viewBox="0 0 1024 1024" version="1.1" xmlns="http://www.w3.org/2000/svg" p-id="1464" xmlns:xlink="http://www.w3.org/1999/xlink" width="200" height="200"><path d="M935.975 901.489L765.688 729.113a39.311 39.311 0 0 0-6.168-5.084c67.492-71.069 109.033-167.002 109.033-272.517 0-218.431-177.707-396.145-396.144-396.145-218.43 0-396.144 177.714-396.144 396.145 0 218.435 177.714 396.148 396.144 396.148 85.899 0 165.433-27.572 230.403-74.205 1.83 3.797 4.139 7.426 7.266 10.586l170.289 172.38c15.168 15.36 39.912 15.506 55.27 0.338s15.506-39.914 0.338-55.27zM144.18 451.512c0-180.994 147.236-328.231 328.229-328.231 180.999 0 328.231 147.237 328.231 328.231 0 180.997-147.232 328.23-328.231 328.23-180.993 0-328.229-147.233-328.229-328.23z m0 0" p-id="1465" fill="#bfbfbf"></path></svg>
